
<svg xmlns="http://www.w3.org/2000/svg" version="1.1" xmlns:xlink="http://www.w3.org/1999/xlink" preserveAspectRatio="none" x="0px" y="0px" width="30px" height="30px" viewBox="0 0 30 30">
<defs>
<g id="Layer0_0_MEMBER_0_FILL">
<path fill="#000000" stroke="none" d="
M 362.8 81.95
Q 360.6 70.1 354 59.75 347.35 49.3 337.6 42.35 327.8 35.1 315.65 32.05 303.55 29 291.45 30.7 273.8 32.9 259.4 44.7 245 56.5 239.45 73.4 234.75 86.85 236.45 101.5 238.15 116.1 245.85 128.15 251.7 137.5 260.65 144.45 269.55 151.35 280.1 154.8 289.5 157.9 299.55 157.95 309.6 158 319 155.05 332.3 151 342.95 141.35 353.55 131.75 358.9 118.9 362.6 110.25 363.6 100.75 364.6 91.2 362.8 81.95
M 343 56.5
Q 336.5 62.3 327.45 70.05 323.4 65.55 318.15 62.55 312.85 59.5 307 58.25
L 310.9 38.1
Q 320.15 39.95 328.45 44.75 336.7 49.45 343 56.5
M 334.5 82.2
Q 341 80 354.05 75.5 356.95 84.55 357 94.05 357 103.7 354.05 112.6
L 334.5 105.85
Q 338.2 94.05 334.5 82.2
M 327.35 118.15
Q 330.55 120.55 335.25 124.75 341.55 130.35 343 131.55 336.7 138.6 328.45 143.4 320.15 148.2 310.9 150.05 307.3 131.25 307.05 129.75 318.2 127.55 327.35 118.15
M 281.8 62.6
Q 276.6 65.6 272.55 70.05
L 256.95 56.55
Q 263.2 49.45 271.5 44.7 279.8 39.95 289.05 38.05 292.5 56.05 292.9 58.3 287.05 59.55 281.8 62.6
M 245.9 75.45
Q 252.4 77.65 265.45 82.15 261.8 94.15 265.45 105.85
L 245.95 112.55
Q 243 103.55 243 94 242.95 84.4 245.9 75.45
M 256.9 131.55
L 272.5 118
Q 276.6 122.5 281.8 125.5 287.05 128.55 292.95 129.8
L 289 150.05
Q 279.8 148.2 271.5 143.35 263.3 138.6 256.9 131.55 Z"/>
</g>

<g id="Layer0_1_MEMBER_0_FILL">
<path fill="#000000" stroke="none" d="
M 162.9 77
Q 164.75 71.5 162.8 68.25 161.8 66.25 159.45 64.95 158.1 64.2 155.05 63.15 128.35 54.45 115 50.15 112.75 49.35 110.6 49.4 108.2 49.5 106.4 50.75 104.85 51.65 103.75 53.55 103 54.8 102.2 57.1
L 82.6 117.45
Q 81.75 120.25 81.6 121.65 81.35 124 82.2 125.8 83.6 129.5 89.35 131.4 116.05 140 129.35 144.4 132.1 145.2 133.55 145.35 135.95 145.6 137.75 144.75 141.5 143.3 143.1 138
L 162.9 77
M 105.2 87.9
Q 105.45 82.95 109.2 79.45 113.25 75.7 118 77.05 123.3 77.95 125.9 85.95 126.85 85.3 128.8 83.9 130.5 82.8 132.05 82.55 135.5 82.05 138.65 83.9 141.85 85.8 142.85 89.1 144.2 92.95 142.65 97.25 141.25 101.15 138 104.05 134.05 107.8 127.95 110.55 124.15 112.2 116.6 114.6 110.75 106.8 108.45 102.15 104.7 94.7 105.2 87.9 Z"/>
</g>

<g id="Layer0_2_FILL">
<path fill="#000000" stroke="none" d="
M 274.3 50.35
Q 272.85 51.25 272.85 53.1 272.85 54.95 274.3 55.85 275.85 57.2 277.85 56.15 279.85 55.05 279.75 53 279.7 51.05 277.8 50.1 275.85 49.1 274.3 50.35 Z"/>
</g>

<g id="Layer0_3_FILL">
<path fill="#000000" stroke="none" d="
M 325.75 55.65
Q 327.55 54.15 326.85 52.15 326.5 50.4 324.6 49.8 322.7 49.2 321.35 50.4 319.95 51.5 320.2 53.45 320.45 55.45 322.1 56.15 323.95 57.2 325.75 55.65 Z"/>
</g>

<g id="Layer0_4_FILL">
<path fill="#000000" stroke="none" d="
M 69.8 55
Q 68.65 56.5 68.3 58.8 68.05 60.25 68.05 62.95
L 68.05 126.1
Q 67.95 131.95 71.35 134.6 73.45 136.4 77.2 136.7 79.35 136.85 83.55 136.9 78.6 133.95 76.1 128.95 73.45 123.5 75.2 118.25 85.65 85.6 96.95 51.3 84.25 51.2 77.95 51.35 75.5 51.3 73.45 52.15 71.1 53.1 69.8 55 Z"/>
</g>

<g id="Layer0_5_FILL">
<path fill="#000000" stroke="none" d="
M 40.15 65.15
Q 38.05 66.4 37.15 68.2 35.2 71.5 37.05 76.95
L 56.9 138.1
Q 58.5 143.35 62.25 144.8 64.65 145.85 68 145.1 69.95 144.65 73.65 143.4 68.4 141.85 64.9 137.7 61.2 133.35 61.2 128.05 61.1 76.55 61.25 57.85
L 44.15 63.4
Q 41.6 64.25 40.15 65.15 Z"/>
</g>

<g id="Layer0_6_FILL">
<path fill="#000000" stroke="none" d="
M 250.4 91.55
Q 249.1 92.65 249.3 94.5 249.5 96.35 251.05 97.1 252.65 98.15 254.5 97 256.35 95.85 256.1 93.95 256.15 91.85 254 90.95 251.85 90 250.4 91.55 Z"/>
</g>

<g id="Layer0_7_FILL">
<path fill="#000000" stroke="none" d="
M 345.25 91.15
Q 343.8 92.1 343.85 93.95 343.85 95.85 345.3 96.75 346.85 98 348.8 97 350.75 96.05 350.65 94.05 350.8 92 348.85 90.95 346.85 89.9 345.25 91.15 Z"/>
</g>

<g id="Layer0_8_FILL">
<path fill="#000000" stroke="none" d="
M 274.3 132.25
Q 272.8 133.35 273 135.4 273.25 137.45 275 138.1 276.85 139.05 278.55 137.6 280.3 136.15 279.7 134.15 279.35 132.4 277.55 131.75 275.7 131.1 274.3 132.25 Z"/>
</g>

<g id="Layer0_9_FILL">
<path fill="#000000" stroke="none" d="
M 325.75 137.6
Q 327.65 136.15 327 134.1 326.6 132.3 324.65 131.7 322.65 131.05 321.35 132.4 320.05 133.5 320.25 135.3 320.5 137.15 322 137.9 323.85 139.05 325.75 137.6 Z"/>
</g>

<g id="Layer0_10_MEMBER_0_FILL">
<path fill="#000000" stroke="none" d="
M 148.25 240.05
Q 141.5 232.35 132.8 227.15 123.4 221.45 112.4 219.3 101.45 217.15 90.55 218.75 79.95 220.3 70.3 225.4 60.6 230.45 53.3 238.35 46.4 245.65 42.1 254.85 37.75 264.05 36.55 274 35.1 285.15 37.65 296.2 40.15 307.35 46.25 316.7 53.25 327.6 64.25 335.05 75.25 342.5 88 344.85 99.3 347 110.75 345.05 122.35 343.1 132.15 337.3 141.1 332.15 148 324.25 154.95 316.4 158.9 306.9 163.95 295.15 163.95 282.05 163.95 268.95 158.9 257.15 155 247.85 148.25 240.05
M 131.85 234.65
L 127.85 240.65
Q 122.6 237.7 119 236.1 114 233.9 109.5 233.1
L 110.95 225.95
Q 122.25 228.3 131.85 234.65
M 89 225.95
L 90.35 233.1
Q 82.85 234.55 72.1 240.7
L 68.1 234.65
Q 77.7 228.3 89 225.95
M 98.1 246.65
L 104.15 246.65 104.15 254.6
Q 111.7 256.5 114.65 260.4 116.55 262.6 117.45 265.95 118.05 268.25 118.4 272.1 111.2 272.1 107.6 272 107.25 269.7 107 268.55 106.55 266.6 105.65 265.4 103.85 262.8 100.15 263.05 96.45 263.25 95.15 266.2 94.05 268.65 94.6 271.3 95.15 274.15 97.35 275.5 98 275.9 107.25 280.45 113.25 283.4 116.05 286.95 118.95 291.55 118.3 297.25 117.6 303.1 113.5 306.5 111.65 308.15 108.65 309.1 108 309.3 103.3 310.45
L 103.3 317.9 97.25 317.85 97.2 310.45
Q 92.85 309.45 90.75 308.6 87.25 307.15 85.25 304.8 83.15 302.7 82.25 299.2 81.7 297.1 81.35 292.8
L 92.2 292.8
Q 92.45 294.1 92.95 296.7 93.55 298.9 94.85 300.1 96.85 301.85 99.75 302.1 102.6 302.35 104.9 300.95 107.8 298.85 107.45 294.85 107.15 290.85 104 289.15 97.55 286.1 94.3 284.5 88.5 281.75 85.8 278.2 82.9 273.6 83.55 267.85 84.2 261.9 88.4 258.5 90.15 257 93 256 93.55 255.85 98.1 254.6
L 98.1 246.65
M 141.3 254.1
L 147.35 250.15
Q 153.7 259.75 156.05 271.05
L 148.9 272.4
Q 148.05 267.95 145.85 262.95 144.3 259.45 141.3 254.1
M 148.9 291.55
L 156.05 293
Q 153.7 304.3 147.35 313.9
L 141.35 309.9
Q 144.25 304.75 145.9 301.05 148.05 296.05 148.9 291.55
M 43.9 271.05
Q 46.3 259.65 52.6 250.15
L 58.65 254.3
Q 52.6 264.35 51.05 272.5
L 43.9 271.05
M 43.9 293
L 51.05 291.65
Q 51.9 296.15 54.1 301.1 55.7 304.8 58.65 309.9
L 52.55 313.9
Q 46.25 304.25 43.9 293
M 68.1 329.4
L 72.15 323.35
Q 82.65 329.5 90.45 330.95
L 89 338.1
Q 77.7 335.75 68.1 329.4
M 127.8 323.35
L 131.85 329.4
Q 122.25 335.75 110.95 338.1
L 109.6 330.95
Q 114.1 330.1 119 327.9 122.75 326.25 127.8 323.35 Z"/>
</g>

<g id="Layer0_11_MEMBER_0_FILL">
<path fill="#000000" stroke="none" d="
M 148.5 428.35
Q 141.65 420.4 132.8 415.15 123.4 409.45 112.4 407.3 101.4 405.15 90.5 406.8 80.1 408.3 70.55 413.25 61.05 418.2 53.75 425.85 46.65 433.25 42.25 442.55 37.75 451.95 36.55 462.05 35.1 473.15 37.65 484.2 40.15 495.35 46.25 504.7 53.25 515.6 64.25 523.05 75.25 530.5 87.95 532.85 98.85 534.95 110.05 533.2 121.25 531.4 130.95 526 140.1 520.95 147.25 513.05 154.45 505.2 158.6 495.6 163.75 483.9 163.9 470.8 164.05 457.7 159.2 445.9 155.35 436.35 148.5 428.35
M 85.15 442.25
Q 88.9 436.5 96.05 434.95 103.2 433.35 109.05 436.9 113.95 439.65 116.35 445.2 118.65 450.55 117.7 456.25 122.85 457.1 126.9 460.2 131.15 463.45 132.75 468.2 135.25 474.7 132.3 481.5 129.3 488.35 122.8 490.9 118.25 492.9 112.95 492 107.9 491.15 103.85 487.95 104.3 494.05 104.75 497.05 105.55 502.1 107.15 505.9 100 505.85 92.8 505.9 94.35 502.15 95.15 497.05 95.45 494.95 96.1 487.95 92 491.15 87 492 81.7 492.9 77.1 490.9 70.65 488.35 67.65 481.5 64.7 474.7 67.2 468.2 68.85 463.45 73.05 460.2 77.1 457.1 82.2 456.25 81.2 447.6 85.15 442.25 Z"/>
</g>

<g id="Layer0_12_MEMBER_0_FILL">
<path fill="#000000" stroke="none" d="
M 496.1 425.75
Q 493.9 424.25 492.8 423.7 490.85 422.75 489.05 422.9 487.05 423.05 484.4 423.75 481.4 424.6 479.85 425 461.55 430 444.55 434.45 442.05 435.2 440.65 435.9 438.6 436.95 437.6 438.55 435.1 441.85 436.95 448.3 442.6 468.9 453.6 510.2 454.35 513.7 457.45 515.8 460.65 517.9 464.1 516.95 468.25 515.95 475.55 514 483.65 511.8 486.95 510.95 482 508.6 479.5 503.65 476.95 498.75 477.85 493.35
L 470.5 487.9 476.8 473.4 482.2 477.4
Q 491.35 442.95 496.1 425.75
M 480.85 451.45
L 474.6 465.95 462.15 456.75 468.5 442.25 480.85 451.45 Z"/>
</g>

<g id="Layer0_13_MEMBER_0_FILL">
<path fill="#000000" stroke="none" d="
M 346.1 229.05
Q 346.05 226.4 345.85 225.15 345.45 222.95 344.35 221.6 343.05 219.7 340.7 218.8 338.55 217.95 336.1 218.05
L 270 218
Q 267.05 218 265.6 218 262.95 218 261.15 218.25 257.75 218.65 255.6 221.65 253.55 224.55 253.85 228 253.8 263.65 253.85 335 253.9 337.6 254.15 338.85 254.5 341.05 255.6 342.4 256.85 344.35 259.3 345.25 261.4 346.1 263.95 346
L 334.95 346.05
Q 337.7 346.05 339.5 345.6 341.95 345.05 343.45 343.5 345.05 342.05 345.65 339.55 346.1 337.8 346.1 335
L 346.1 229.05
M 324.7 317.55
L 327.65 317.65
Q 329.15 322.4 332.4 331.85
L 329.5 331.8 328.6 328.8 323.65 328.75 322.65 331.8 319.8 331.8 324.7 317.55
M 272.65 232.3
L 275.6 232.2
Q 280.05 245.3 280.5 246.75 277.35 246.9 276.45 243.5
L 271.7 243.45 270.75 246.45 267.9 246.45 272.65 232.3
M 280.4 289.75
Q 278.8 285.1 280.4 280.55 282.45 274.1 288.45 268.25 292.05 264.65 300.1 258.95 308.2 264.65 311.95 268.4 318 274.35 319.95 281 321.5 285.65 319.6 290.35 317.6 295.35 312.95 296.7 308.45 298.2 302.5 294.3 303.3 300.35 304.75 304.65
L 295.55 304.65
Q 296.9 300.4 297.75 294.3 291.4 298.55 286.45 296.4 282.1 294.65 280.4 289.75 Z"/>
</g>

<g id="Layer0_14_FILL">
<path fill="#000000" stroke="none" d="
M 274.15 235.6
L 272.35 241.3 275.95 241.3 274.15 235.6 Z"/>
</g>

<g id="Layer0_15_FILL">
<path fill="#000000" stroke="none" d="
M 324.3 326.65
Q 326.1 326.6 327.85 326.65
L 326.1 320.9 324.3 326.65 Z"/>
</g>
</defs>

<g transform="matrix( 1, 0, 0, 1, 313.05,-418.65) ">
<use xlink:href="#Layer0_0_MEMBER_0_FILL"/>
</g>

<g transform="matrix( 1, 0, 0, 1, 313.05,-418.65) ">
<use xlink:href="#Layer0_1_MEMBER_0_FILL"/>
</g>

<g transform="matrix( 1, 0, 0, 1, 313.05,-418.65) ">
<use xlink:href="#Layer0_2_FILL"/>
</g>

<g transform="matrix( 1, 0, 0, 1, 313.05,-418.65) ">
<use xlink:href="#Layer0_3_FILL"/>
</g>

<g transform="matrix( 1, 0, 0, 1, 313.05,-418.65) ">
<use xlink:href="#Layer0_4_FILL"/>
</g>

<g transform="matrix( 1, 0, 0, 1, 313.05,-418.65) ">
<use xlink:href="#Layer0_5_FILL"/>
</g>

<g transform="matrix( 1, 0, 0, 1, 313.05,-418.65) ">
<use xlink:href="#Layer0_6_FILL"/>
</g>

<g transform="matrix( 1, 0, 0, 1, 313.05,-418.65) ">
<use xlink:href="#Layer0_7_FILL"/>
</g>

<g transform="matrix( 1, 0, 0, 1, 313.05,-418.65) ">
<use xlink:href="#Layer0_8_FILL"/>
</g>

<g transform="matrix( 1, 0, 0, 1, 313.05,-418.65) ">
<use xlink:href="#Layer0_9_FILL"/>
</g>

<g transform="matrix( 1, 0, 0, 1, 313.05,-418.65) ">
<use xlink:href="#Layer0_10_MEMBER_0_FILL"/>
</g>

<g transform="matrix( 1, 0, 0, 1, 313.05,-418.65) ">
<use xlink:href="#Layer0_11_MEMBER_0_FILL"/>
</g>

<g transform="matrix( 0.2174835205078125, 0, 0, 0.2174835205078125, -93.15,-86.95) ">
<use xlink:href="#Layer0_12_MEMBER_0_FILL"/>
</g>

<g transform="matrix( 0.1427154541015625, 0.0382232666015625, -0.0382232666015625, 0.1427154541015625, -12,-36.8) ">
<use xlink:href="#Layer0_13_MEMBER_0_FILL"/>
</g>

<g transform="matrix( 0.1427154541015625, 0.038238525390625, -0.038238525390625, 0.1427154541015625, -12,-36.8) ">
<use xlink:href="#Layer0_14_FILL"/>
</g>

<g transform="matrix( 0.1427154541015625, 0.038238525390625, -0.038238525390625, 0.1427154541015625, -12,-36.8) ">
<use xlink:href="#Layer0_15_FILL"/>
</g>
</svg>
