{
    "asset" : {
        "generator" : "Khronos glTF Blender I/O v1.6.16",
        "version" : "2.0"
    },
    "scene" : 0,
    "scenes" : [
        {
            "name" : "Scene",
            "nodes" : [
                0
            ]
        }
    ],
    "nodes" : [
        {
            "mesh" : 0,
            "name" : "Chip",
            "rotation" : [
                0,
                0,
                -0.7071068286895752,
                0.7071068286895752
            ]
        }
    ],
    "materials" : [
        {
            "doubleSided" : true,
            "name" : "Chip Color",
            "pbrMetallicRoughness" : {
                "baseColorFactor" : [
                    0.1356334090232849,
                    0.0423114076256752,
                    0.4735316038131714,
                    1
                ],
                "metallicFactor" : 0,
                "roughnessFactor" : 0.5
            }
        },
        {
            "doubleSided" : true,
            "name" : "Chip_white",
            "pbrMetallicRoughness" : {
                "baseColorFactor" : [
                    1,
                    0.6795423626899719,
                    0.05126953125,
                    1
                ],
                "metallicFactor" : 0,
                "roughnessFactor" : 0.5
            }
        }
    ],
    "meshes" : [
        {
            "name" : "Circle.003",
            "primitives" : [
                {
                    "attributes" : {
                        "POSITION" : 0,
                        "NORMAL" : 1
                    },
                    "indices" : 2,
                    "material" : 0
                },
                {
                    "attributes" : {
                        "POSITION" : 3,
                        "NORMAL" : 4
                    },
                    "indices" : 5,
                    "material" : 1
                }
            ]
        }
    ],
    "accessors" : [
        {
            "bufferView" : 0,
            "componentType" : 5126,
            "count" : 2538,
            "max" : [
                0.9975981712341309,
                0.09937574714422226,
                0.9975981712341309
            ],
            "min" : [
                -0.9975981712341309,
                -0.09937574714422226,
                -0.9975981712341309
            ],
            "type" : "VEC3"
        },
        {
            "bufferView" : 1,
            "componentType" : 5126,
            "count" : 2538,
            "type" : "VEC3"
        },
        {
            "bufferView" : 2,
            "componentType" : 5123,
            "count" : 13920,
            "type" : "SCALAR"
        },
        {
            "bufferView" : 3,
            "componentType" : 5126,
            "count" : 840,
            "max" : [
                0.9903926849365234,
                0.09937573969364166,
                0.9903926849365234
            ],
            "min" : [
                -0.9903926849365234,
                -0.09937573969364166,
                -0.990392804145813
            ],
            "type" : "VEC3"
        },
        {
            "bufferView" : 4,
            "componentType" : 5126,
            "count" : 840,
            "type" : "VEC3"
        },
        {
            "bufferView" : 5,
            "componentType" : 5123,
            "count" : 3840,
            "type" : "SCALAR"
        }
    ],
    "bufferViews" : [
        {
            "buffer" : 0,
            "byteLength" : 30456,
            "byteOffset" : 0
        },
        {
            "buffer" : 0,
            "byteLength" : 30456,
            "byteOffset" : 30456
        },
        {
            "buffer" : 0,
            "byteLength" : 27840,
            "byteOffset" : 60912
        },
        {
            "buffer" : 0,
            "byteLength" : 10080,
            "byteOffset" : 88752
        },
        {
            "buffer" : 0,
            "byteLength" : 10080,
            "byteOffset" : 98832
        },
        {
            "buffer" : 0,
            "byteLength" : 7680,
            "byteOffset" : 108912
        }
    ],
    "buffers" : [
        {
            "byteLength" : 116592,
            "uri" : "data:application/octet-stream;base64,"
        }
    ]
}
