
<svg xmlns="http://www.w3.org/2000/svg" version="1.1" xmlns:xlink="http://www.w3.org/1999/xlink" preserveAspectRatio="none" x="0px" y="0px" width="30px" height="30px" viewBox="0 0 30 30">
<defs>
<g id="Layer0_0_MEMBER_0_FILL">
<path fill="#000000" stroke="none" d="
M 362.8 81.95
Q 360.6 70.1 354 59.75 347.35 49.3 337.6 42.35 327.8 35.1 315.65 32.05 303.55 29 291.45 30.7 273.8 32.9 259.4 44.7 245 56.5 239.45 73.4 234.75 86.85 236.45 101.5 238.15 116.1 245.85 128.15 251.7 137.5 260.65 144.45 269.55 151.35 280.1 154.8 289.5 157.9 299.55 157.95 309.6 158 319 155.05 332.3 151 342.95 141.35 353.55 131.75 358.9 118.9 362.6 110.25 363.6 100.75 364.6 91.2 362.8 81.95
M 343 56.5
Q 336.5 62.3 327.45 70.05 323.4 65.55 318.15 62.55 312.85 59.5 307 58.25
L 310.9 38.1
Q 320.15 39.95 328.45 44.75 336.7 49.45 343 56.5
M 334.5 82.2
Q 341 80 354.05 75.5 356.95 84.55 357 94.05 357 103.7 354.05 112.6
L 334.5 105.85
Q 338.2 94.05 334.5 82.2
M 327.35 118.15
Q 330.55 120.55 335.25 124.75 341.55 130.35 343 131.55 336.7 138.6 328.45 143.4 320.15 148.2 310.9 150.05 307.3 131.25 307.05 129.75 318.2 127.55 327.35 118.15
M 281.8 62.6
Q 276.6 65.6 272.55 70.05
L 256.95 56.55
Q 263.2 49.45 271.5 44.7 279.8 39.95 289.05 38.05 292.5 56.05 292.9 58.3 287.05 59.55 281.8 62.6
M 245.9 75.45
Q 252.4 77.65 265.45 82.15 261.8 94.15 265.45 105.85
L 245.95 112.55
Q 243 103.55 243 94 242.95 84.4 245.9 75.45
M 256.9 131.55
L 272.5 118
Q 276.6 122.5 281.8 125.5 287.05 128.55 292.95 129.8
L 289 150.05
Q 279.8 148.2 271.5 143.35 263.3 138.6 256.9 131.55 Z"/>
</g>

<g id="Layer0_1_MEMBER_0_FILL">
<path fill="#000000" stroke="none" d="
M 162.9 77
Q 164.75 71.5 162.8 68.25 161.8 66.25 159.45 64.95 158.1 64.2 155.05 63.15 128.35 54.45 115 50.15 112.75 49.35 110.6 49.4 108.2 49.5 106.4 50.75 104.85 51.65 103.75 53.55 103 54.8 102.2 57.1
L 82.6 117.45
Q 81.75 120.25 81.6 121.65 81.35 124 82.2 125.8 83.6 129.5 89.35 131.4 116.05 140 129.35 144.4 132.1 145.2 133.55 145.35 135.95 145.6 137.75 144.75 141.5 143.3 143.1 138
L 162.9 77
M 105.2 87.9
Q 105.45 82.95 109.2 79.45 113.25 75.7 118 77.05 123.3 77.95 125.9 85.95 126.85 85.3 128.8 83.9 130.5 82.8 132.05 82.55 135.5 82.05 138.65 83.9 141.85 85.8 142.85 89.1 144.2 92.95 142.65 97.25 141.25 101.15 138 104.05 134.05 107.8 127.95 110.55 124.15 112.2 116.6 114.6 110.75 106.8 108.45 102.15 104.7 94.7 105.2 87.9 Z"/>
</g>

<g id="Layer0_2_FILL">
<path fill="#000000" stroke="none" d="
M 274.3 50.35
Q 272.85 51.25 272.85 53.1 272.85 54.95 274.3 55.85 275.85 57.2 277.85 56.15 279.85 55.05 279.75 53 279.7 51.05 277.8 50.1 275.85 49.1 274.3 50.35 Z"/>
</g>

<g id="Layer0_3_FILL">
<path fill="#000000" stroke="none" d="
M 325.75 55.65
Q 327.55 54.15 326.85 52.15 326.5 50.4 324.6 49.8 322.7 49.2 321.35 50.4 319.95 51.5 320.2 53.45 320.45 55.45 322.1 56.15 323.95 57.2 325.75 55.65 Z"/>
</g>

<g id="Layer0_4_FILL">
<path fill="#000000" stroke="none" d="
M 69.8 55
Q 68.65 56.5 68.3 58.8 68.05 60.25 68.05 62.95
L 68.05 126.1
Q 67.95 131.95 71.35 134.6 73.45 136.4 77.2 136.7 79.35 136.85 83.55 136.9 78.6 133.95 76.1 128.95 73.45 123.5 75.2 118.25 85.65 85.6 96.95 51.3 84.25 51.2 77.95 51.35 75.5 51.3 73.45 52.15 71.1 53.1 69.8 55 Z"/>
</g>

<g id="Layer0_5_FILL">
<path fill="#000000" stroke="none" d="
M 40.15 65.15
Q 38.05 66.4 37.15 68.2 35.2 71.5 37.05 76.95
L 56.9 138.1
Q 58.5 143.35 62.25 144.8 64.65 145.85 68 145.1 69.95 144.65 73.65 143.4 68.4 141.85 64.9 137.7 61.2 133.35 61.2 128.05 61.1 76.55 61.25 57.85
L 44.15 63.4
Q 41.6 64.25 40.15 65.15 Z"/>
</g>

<g id="Layer0_6_FILL">
<path fill="#000000" stroke="none" d="
M 250.4 91.55
Q 249.1 92.65 249.3 94.5 249.5 96.35 251.05 97.1 252.65 98.15 254.5 97 256.35 95.85 256.1 93.95 256.15 91.85 254 90.95 251.85 90 250.4 91.55 Z"/>
</g>

<g id="Layer0_7_FILL">
<path fill="#000000" stroke="none" d="
M 345.25 91.15
Q 343.8 92.1 343.85 93.95 343.85 95.85 345.3 96.75 346.85 98 348.8 97 350.75 96.05 350.65 94.05 350.8 92 348.85 90.95 346.85 89.9 345.25 91.15 Z"/>
</g>

<g id="Layer0_8_FILL">
<path fill="#000000" stroke="none" d="
M 274.3 132.25
Q 272.8 133.35 273 135.4 273.25 137.45 275 138.1 276.85 139.05 278.55 137.6 280.3 136.15 279.7 134.15 279.35 132.4 277.55 131.75 275.7 131.1 274.3 132.25 Z"/>
</g>

<g id="Layer0_9_FILL">
<path fill="#000000" stroke="none" d="
M 325.75 137.6
Q 327.65 136.15 327 134.1 326.6 132.3 324.65 131.7 322.65 131.05 321.35 132.4 320.05 133.5 320.25 135.3 320.5 137.15 322 137.9 323.85 139.05 325.75 137.6 Z"/>
</g>

<g id="Layer0_10_MEMBER_0_FILL">
<path fill="#000000" stroke="none" d="
M 148.25 240.05
Q 141.5 232.35 132.8 227.15 123.4 221.45 112.4 219.3 101.45 217.15 90.55 218.75 79.95 220.3 70.3 225.4 60.6 230.45 53.3 238.35 46.4 245.65 42.1 254.85 37.75 264.05 36.55 274 35.1 285.15 37.65 296.2 40.15 307.35 46.25 316.7 53.25 327.6 64.25 335.05 75.25 342.5 88 344.85 99.3 347 110.75 345.05 122.35 343.1 132.15 337.3 141.1 332.15 148 324.25 154.95 316.4 158.9 306.9 163.95 295.15 163.95 282.05 163.95 268.95 158.9 257.15 155 247.85 148.25 240.05
M 131.85 234.65
L 127.85 240.65
Q 122.6 237.7 119 236.1 114 233.9 109.5 233.1
L 110.95 225.95
Q 122.25 228.3 131.85 234.65
M 89 225.95
L 90.35 233.1
Q 82.85 234.55 72.1 240.7
L 68.1 234.65
Q 77.7 228.3 89 225.95
M 98.1 246.65
L 104.15 246.65 104.15 254.6
Q 111.7 256.5 114.65 260.4 116.55 262.6 117.45 265.95 118.05 268.25 118.4 272.1 111.2 272.1 107.6 272 107.25 269.7 107 268.55 106.55 266.6 105.65 265.4 103.85 262.8 100.15 263.05 96.45 263.25 95.15 266.2 94.05 268.65 94.6 271.3 95.15 274.15 97.35 275.5 98 275.9 107.25 280.45 113.25 283.4 116.05 286.95 118.95 291.55 118.3 297.25 117.6 303.1 113.5 306.5 111.65 308.15 108.65 309.1 108 309.3 103.3 310.45
L 103.3 317.9 97.25 317.85 97.2 310.45
Q 92.85 309.45 90.75 308.6 87.25 307.15 85.25 304.8 83.15 302.7 82.25 299.2 81.7 297.1 81.35 292.8
L 92.2 292.8
Q 92.45 294.1 92.95 296.7 93.55 298.9 94.85 300.1 96.85 301.85 99.75 302.1 102.6 302.35 104.9 300.95 107.8 298.85 107.45 294.85 107.15 290.85 104 289.15 97.55 286.1 94.3 284.5 88.5 281.75 85.8 278.2 82.9 273.6 83.55 267.85 84.2 261.9 88.4 258.5 90.15 257 93 256 93.55 255.85 98.1 254.6
L 98.1 246.65
M 141.3 254.1
L 147.35 250.15
Q 153.7 259.75 156.05 271.05
L 148.9 272.4
Q 148.05 267.95 145.85 262.95 144.3 259.45 141.3 254.1
M 148.9 291.55
L 156.05 293
Q 153.7 304.3 147.35 313.9
L 141.35 309.9
Q 144.25 304.75 145.9 301.05 148.05 296.05 148.9 291.55
M 43.9 271.05
Q 46.3 259.65 52.6 250.15
L 58.65 254.3
Q 52.6 264.35 51.05 272.5
L 43.9 271.05
M 43.9 293
L 51.05 291.65
Q 51.9 296.15 54.1 301.1 55.7 304.8 58.65 309.9
L 52.55 313.9
Q 46.25 304.25 43.9 293
M 68.1 329.4
L 72.15 323.35
Q 82.65 329.5 90.45 330.95
L 89 338.1
Q 77.7 335.75 68.1 329.4
M 127.8 323.35
L 131.85 329.4
Q 122.25 335.75 110.95 338.1
L 109.6 330.95
Q 114.1 330.1 119 327.9 122.75 326.25 127.8 323.35 Z"/>
</g>

<g id="Layer0_11_MEMBER_0_FILL">
<path fill="#000000" stroke="none" d="
M 346.1 229.05
Q 346.05 226.4 345.85 225.15 345.45 222.95 344.35 221.6 343.05 219.7 340.7 218.8 338.55 217.95 336.1 218.05
L 270 218
Q 267.05 218 265.6 218 262.95 218 261.15 218.25 257.75 218.65 255.6 221.65 253.55 224.55 253.85 228 253.8 263.65 253.85 335 253.9 337.6 254.15 338.85 254.5 341.05 255.6 342.4 256.85 344.35 259.3 345.25 261.4 346.1 263.95 346
L 334.95 346.05
Q 337.7 346.05 339.5 345.6 341.95 345.05 343.45 343.5 345.05 342.05 345.65 339.55 346.1 337.8 346.1 335
L 346.1 229.05
M 324.7 317.55
L 327.65 317.65
Q 329.15 322.4 332.4 331.85
L 329.5 331.8 328.6 328.8 323.65 328.75 322.65 331.8 319.8 331.8 324.7 317.55
M 267.9 246.45
L 272.65 232.3 275.6 232.2
Q 280.05 245.3 280.5 246.75 277.35 246.9 276.45 243.5
L 271.7 243.45 270.75 246.45 267.9 246.45
M 280.4 289.75
Q 278.8 285.1 280.4 280.55 282.45 274.1 288.45 268.25 292.05 264.65 300.1 258.95 308.2 264.65 311.95 268.4 318 274.35 319.95 281 321.5 285.65 319.6 290.35 317.6 295.35 312.95 296.7 308.45 298.2 302.5 294.3 303.3 300.35 304.75 304.65
L 295.55 304.65
Q 296.9 300.4 297.75 294.3 291.4 298.55 286.45 296.4 282.1 294.65 280.4 289.75 Z"/>
</g>

<g id="Layer0_12_MEMBER_0_FILL">
<path fill="#000000" stroke="none" d="
M 461.25 218.25
Q 457.8 218.6 455.65 221.6 453.6 224.45 453.85 227.95
L 453.85 330
Q 453.9 331.75 453.85 335.3 453.9 338.4 454.55 340.55 455.55 343.3 458.3 344.8 460.85 346.15 463.9 346
L 535 346.05
Q 541.3 346.15 543.9 343 545.25 341.6 545.75 339.25 546.05 337.75 546.1 335.05
L 546.1 229
Q 546.1 226.25 545.65 224.45 545.05 222 543.45 220.55 541.5 218.6 538.05 218.15 537.25 218.05 532 218 524.15 218.05 496.6 218 474.7 217.95 461.25 218.25
M 478.6 292.55
Q 476.1 287.55 471.65 284.25 469.5 285.55 467.4 285.35 464.95 285.1 464.4 282.7 463.7 280.15 465.95 278.8 468.05 277.45 470.35 278.45
L 471.9 281.1
Q 480.7 283 487.35 289.4 487.85 282.4 491.1 274.65 493.5 268.95 498.25 261.15 497.25 259.55 496.85 258.7 496.1 257.2 496.65 256.05 497.35 253.85 499.85 253.65 502.35 253.4 503.45 255.4 504.4 256.7 503.65 258.4 503.55 258.6 502 261.15 506.75 268.95 509.15 274.65 512.4 282.35 512.9 289.35 519.3 283.45 525.75 281.9 527.95 281.5 529.95 278.65 530.65 278.55 532.15 278.15 533.5 278 534.3 278.7 536 279.8 535.85 282 535.7 284.25 533.85 285.1 532.8 285.8 531.25 285.3 529.55 284.55 528.7 284.3 524.25 287.4 521.65 292.5 519.2 297.45 519.1 303 510.8 296.95 500.1 297 489.4 297 481.1 303 481.1 297.5 478.6 292.55 Z"/>
</g>

<g id="Layer0_13_FILL">
<path fill="#000000" stroke="none" d="
M 274.15 235.6
L 272.35 241.3 275.95 241.3 274.15 235.6 Z"/>
</g>

<g id="Layer0_14_FILL">
<path fill="#000000" stroke="none" d="
M 324.3 326.65
Q 326.1 326.6 327.85 326.65
L 326.1 320.9 324.3 326.65 Z"/>
</g>

<g id="Layer0_15_MEMBER_0_FILL">
<path fill="#000000" stroke="none" d="
M 148.5 428.35
Q 141.65 420.4 132.8 415.15 123.4 409.45 112.4 407.3 101.4 405.15 90.5 406.8 80.1 408.3 70.55 413.25 61.05 418.2 53.75 425.85 46.65 433.25 42.25 442.55 37.75 451.95 36.55 462.05 35.1 473.15 37.65 484.2 40.15 495.35 46.25 504.7 53.25 515.6 64.25 523.05 75.25 530.5 87.95 532.85 98.85 534.95 110.05 533.2 121.25 531.4 130.95 526 140.1 520.95 147.25 513.05 154.45 505.2 158.6 495.6 163.75 483.9 163.9 470.8 164.05 457.7 159.2 445.9 155.35 436.35 148.5 428.35
M 85.15 442.25
Q 88.9 436.5 96.05 434.95 103.2 433.35 109.05 436.9 113.95 439.65 116.35 445.2 118.65 450.55 117.7 456.25 122.85 457.1 126.9 460.2 131.15 463.45 132.75 468.2 135.25 474.7 132.3 481.5 129.3 488.35 122.8 490.9 118.25 492.9 112.95 492 107.9 491.15 103.85 487.95 104.3 494.05 104.75 497.05 105.55 502.1 107.15 505.9 100 505.85 92.8 505.9 94.35 502.15 95.15 497.05 95.45 494.95 96.1 487.95 92 491.15 87 492 81.7 492.9 77.1 490.9 70.65 488.35 67.65 481.5 64.7 474.7 67.2 468.2 68.85 463.45 73.05 460.2 77.1 457.1 82.2 456.25 81.2 447.6 85.15 442.25 Z"/>
</g>

<g id="Layer0_16_MEMBER_0_FILL">
<path fill="#000000" stroke="none" d="
M 312.45 407.3
Q 301.45 405.15 290.55 406.8 279.95 408.3 270.25 413.4 260.6 418.5 253.25 426.35 246.05 434 241.65 443.75 237.3 453.5 236.35 463.95 235.2 475.7 238.4 487.25 241.65 498.85 248.7 508.25 255.95 518 266.45 524.5 277.05 531 288.95 533 300.2 535 311.6 532.9 323.05 530.8 332.8 524.9 341.5 519.7 348.25 512 355 504.2 358.9 494.9 363.75 483.5 363.9 470.8 364.05 458.1 359.5 446.6 355.7 436.85 348.75 428.7 341.85 420.55 332.85 415.15 323.45 409.45 312.45 407.3
M 294.25 413.25
Q 303.35 412.35 312.25 414.3 321.3 416.25 329 420.9 338.3 426.35 345.05 435 351.8 443.65 354.75 453.95 357.8 464.35 356.8 475.35 355.8 486.4 350.85 495.95 345.85 505.7 337.45 513.05 329.05 520.4 318.75 523.95 308.05 527.65 296.45 526.95 284.85 526.25 274.75 521.2 264.1 515.95 256.3 506.75 248.45 497.45 245.2 486.1 242 475.2 243.25 463.65 244.55 452.05 250.1 442.2 256.8 430.15 268.65 422.35 280.6 414.5 294.25 413.25 Z"/>
</g>

<g id="Layer0_17_MEMBER_0_FILL">
<path fill="#000000" stroke="none" d="
M 309.95 421.3
Q 301.1 419.45 292.55 420.8 278.8 422.9 267.85 432.2 256.8 441.55 252.75 454.75 250.3 461.8 250.2 469.3 250.05 476.9 252.3 483.95 255.7 496 264.9 505.2 274.1 514.35 286.15 517.7 301.7 522.75 318.05 516.3 334.2 509.85 342.55 495.65 347.9 486.7 349.3 476.45 350.8 465.8 347.65 456.15 345.25 447.45 339.55 440 333.95 432.7 326.15 427.8 318.65 423.15 309.95 421.3
M 277.4 463.55
L 277.4 468.3 285.6 468.3 285.55 471.3 277.35 471.3 277.35 476.9 286.05 476.95 291.75 460.5 295.8 460.55
Q 300.7 474.6 301.55 476.9
L 301.6 460.5 305.45 460.5 305.45 476.9 313.65 476.9 313.65 460.55
Q 320.1 460.55 332.95 460.5 335.5 460.6 336.8 460.95 338.9 461.45 340.05 462.85 340.9 463.85 340.9 465.6 340.9 466.6 340.65 468.55
L 338.35 470.1
Q 340.4 471.5 341.1 474.65 341.5 476.4 341.95 480.05
L 337.9 479.9
Q 337.65 477.7 337.5 476.55 337.2 474.6 336.8 473.2 335.8 472.25 333.8 472.15 331.55 472.25 330.5 472.1
L 330.45 479.95 298.5 479.95 297.15 475.65 290.45 475.6 288.95 479.95 273.45 479.95 273.65 475.65
Q 271.6 478.95 267.2 479.75 265.05 480.1 259.25 479.95
L 259.25 460.5
Q 265.1 460.4 267.1 460.75 271.5 461.5 273.65 464.55
L 273.45 460.55
Q 280.2 460.5 286.9 460.55
L 286.85 463.55 277.4 463.55 Z"/>
</g>

<g id="Layer0_18_MEMBER_0_FILL">
<path fill="#000000" stroke="none" d="
M 496.1 425.75
Q 493.9 424.25 492.8 423.7 490.85 422.75 489.05 422.9 487.05 423.05 484.4 423.75 481.4 424.6 479.85 425 461.55 430 444.55 434.45 442.05 435.2 440.65 435.9 438.6 436.95 437.6 438.55 435.1 441.85 436.95 448.3 442.6 468.9 453.6 510.2 454.35 513.7 457.45 515.8 460.65 517.9 464.1 516.95 468.25 515.95 475.55 514 483.65 511.8 486.95 510.95 482 508.6 479.5 503.65 476.95 498.75 477.85 493.35
L 470.5 487.9 476.8 473.4 482.2 477.4
Q 491.35 442.95 496.1 425.75
M 480.85 451.45
L 474.6 465.95 462.15 456.75 468.5 442.25 480.85 451.45 Z"/>
</g>

<g id="Layer0_19_MEMBER_0_FILL">
<path fill="#000000" stroke="none" d="
M 562.35 438.55
Q 561.35 436.9 559.25 435.85 557.95 435.2 555.35 434.45 533.45 428.65 515.1 423.65 512.65 423 511.2 422.9 508.95 422.75 507.3 423.5 505.25 424.3 503.85 426.15 502.55 427.85 502 430.15 496.5 450.55 485.55 491.4 484.75 494.5 484.65 496 484.45 498.6 485.5 500.5 487.1 504 493.05 505.6 511.4 510.45 533.35 516.4 536 517.1 537.75 517.15 540.25 517.25 542.05 516.15 545.3 514.4 546.8 508.75
L 563.2 447.5
Q 564.75 441.75 562.35 438.55
M 528.75 442.7
Q 529.1 443.1 530.55 445.35 532.8 444.15 533.55 443.95 535.35 443.4 536.75 444.2 539.1 445.15 539.6 447.95 540.1 450.55 538.7 452.7 536.95 455.55 533.35 457.6 531.35 458.75 526.6 460.6 523.35 456.7 522.05 454.35 519.95 450.6 520.1 447.05 520.15 444.65 521.85 442.85 523.65 440.95 526 441.3 527.5 441.35 528.75 442.7
M 510.15 485.05
Q 509.85 482.45 511.55 480.3 513.35 477.95 515.95 478.25 517.5 478.2 518.8 479.6 519.1 479.9 520.75 482.25 523.25 481.05 523.7 480.9 525.5 480.35 526.8 481.15 529.2 482.1 529.75 484.95 530.2 487.6 528.75 489.75 526.95 492.55 523.35 494.6 521.35 495.75 516.65 497.6 513.55 493.65 512.45 491.8 510.4 488.3 510.15 485.05 Z"/>
</g>

<g id="Layer0_20_FILL">
<path fill="#000000" stroke="none" d="
M 263.15 463.4
Q 263.1 470.25 263.15 477.15 264.3 476.95 266.85 476.7 269 476.3 269.75 474.75 271.2 471.15 270.05 466.2 269.45 464.3 267.15 463.8 264.4 463.55 263.15 463.4 Z"/>
</g>

<g id="Layer0_21_FILL">
<path fill="#000000" stroke="none" d="
M 317.55 463.55
L 317.55 468.3 325.3 468.3 325.3 471.3 317.55 471.3 317.55 476.9
Q 322.1 477 326.6 476.9
L 326.6 463.55 317.55 463.55 Z"/>
</g>

<g id="Layer0_22_FILL">
<path fill="#000000" stroke="none" d="
M 330.5 463.4
L 330.5 469.35
Q 331.6 469.15 334.9 468.9 337.5 468.3 337.05 466 336.85 463.95 334.5 463.6 331.65 463.65 330.5 463.4 Z"/>
</g>

<g id="Layer0_23_FILL">
<path fill="#000000" stroke="none" d="
M 293.75 464.85
L 291.3 472.65 296.2 472.6 293.75 464.85 Z"/>
</g>
</defs>

<g transform="matrix( 1, 0, 0, 1, 313.05,-418.65) ">
<use xlink:href="#Layer0_0_MEMBER_0_FILL"/>
</g>

<g transform="matrix( 1, 0, 0, 1, 313.05,-418.65) ">
<use xlink:href="#Layer0_1_MEMBER_0_FILL"/>
</g>

<g transform="matrix( 1, 0, 0, 1, 313.05,-418.65) ">
<use xlink:href="#Layer0_2_FILL"/>
</g>

<g transform="matrix( 1, 0, 0, 1, 313.05,-418.65) ">
<use xlink:href="#Layer0_3_FILL"/>
</g>

<g transform="matrix( 1, 0, 0, 1, 313.05,-418.65) ">
<use xlink:href="#Layer0_4_FILL"/>
</g>

<g transform="matrix( 1, 0, 0, 1, 313.05,-418.65) ">
<use xlink:href="#Layer0_5_FILL"/>
</g>

<g transform="matrix( 1, 0, 0, 1, 313.05,-418.65) ">
<use xlink:href="#Layer0_6_FILL"/>
</g>

<g transform="matrix( 1, 0, 0, 1, 313.05,-418.65) ">
<use xlink:href="#Layer0_7_FILL"/>
</g>

<g transform="matrix( 1, 0, 0, 1, 313.05,-418.65) ">
<use xlink:href="#Layer0_8_FILL"/>
</g>

<g transform="matrix( 1, 0, 0, 1, 313.05,-418.65) ">
<use xlink:href="#Layer0_9_FILL"/>
</g>

<g transform="matrix( 1, 0, 0, 1, 313.05,-418.65) ">
<use xlink:href="#Layer0_10_MEMBER_0_FILL"/>
</g>

<g transform="matrix( 1, 0, 0, 1, 313.05,-418.65) ">
<use xlink:href="#Layer0_11_MEMBER_0_FILL"/>
</g>

<g transform="matrix( 1, 0, 0, 1, 313.05,-418.65) ">
<use xlink:href="#Layer0_12_MEMBER_0_FILL"/>
</g>

<g transform="matrix( 1, 0, 0, 1, 313.05,-418.65) ">
<use xlink:href="#Layer0_13_FILL"/>
</g>

<g transform="matrix( 1, 0, 0, 1, 313.05,-418.65) ">
<use xlink:href="#Layer0_14_FILL"/>
</g>

<g transform="matrix( 1, 0, 0, 1, 313.05,-418.65) ">
<use xlink:href="#Layer0_15_MEMBER_0_FILL"/>
</g>

<g transform="matrix( 0.18292236328125, 0, 0, 0.18292236328125, -39.7,-70.85) ">
<use xlink:href="#Layer0_16_MEMBER_0_FILL"/>
</g>

<g transform="matrix( 0.18292236328125, 0, 0, 0.18292236328125, -39.7,-70.85) ">
<use xlink:href="#Layer0_17_MEMBER_0_FILL"/>
</g>

<g transform="matrix( 1, 0, 0, 1, 313.05,-418.65) ">
<use xlink:href="#Layer0_18_MEMBER_0_FILL"/>
</g>

<g transform="matrix( 1, 0, 0, 1, 313.05,-418.65) ">
<use xlink:href="#Layer0_19_MEMBER_0_FILL"/>
</g>

<g transform="matrix( 0.18292236328125, 0, 0, 0.18292236328125, -39.7,-70.85) ">
<use xlink:href="#Layer0_20_FILL"/>
</g>

<g transform="matrix( 0.18292236328125, 0, 0, 0.18292236328125, -39.7,-70.85) ">
<use xlink:href="#Layer0_21_FILL"/>
</g>

<g transform="matrix( 0.18292236328125, 0, 0, 0.18292236328125, -39.7,-70.85) ">
<use xlink:href="#Layer0_22_FILL"/>
</g>

<g transform="matrix( 0.18292236328125, 0, 0, 0.18292236328125, -39.7,-70.85) ">
<use xlink:href="#Layer0_23_FILL"/>
</g>
</svg>
