
<svg xmlns="http://www.w3.org/2000/svg" version="1.1" xmlns:xlink="http://www.w3.org/1999/xlink" preserveAspectRatio="none" x="0px" y="0px" width="30px" height="30px" viewBox="0 0 30 30">
<defs>
<g id="Layer0_0_MEMBER_0_FILL">
<path fill="#000000" stroke="none" d="
M 362.8 81.95
Q 360.6 70.1 354 59.75 347.35 49.3 337.6 42.35 327.8 35.1 315.65 32.05 303.55 29 291.45 30.7 273.8 32.9 259.4 44.7 245 56.5 239.45 73.4 234.75 86.85 236.45 101.5 238.15 116.1 245.85 128.15 251.7 137.5 260.65 144.45 269.55 151.35 280.1 154.8 289.5 157.9 299.55 157.95 309.6 158 319 155.05 332.3 151 342.95 141.35 353.55 131.75 358.9 118.9 362.6 110.25 363.6 100.75 364.6 91.2 362.8 81.95
M 343 56.5
Q 336.5 62.3 327.45 70.05 323.4 65.55 318.15 62.55 312.85 59.5 307 58.25
L 310.9 38.1
Q 320.15 39.95 328.45 44.75 336.7 49.45 343 56.5
M 334.5 82.2
Q 341 80 354.05 75.5 356.95 84.55 357 94.05 357 103.7 354.05 112.6
L 334.5 105.85
Q 338.2 94.05 334.5 82.2
M 327.35 118.15
Q 330.55 120.55 335.25 124.75 341.55 130.35 343 131.55 336.7 138.6 328.45 143.4 320.15 148.2 310.9 150.05 307.3 131.25 307.05 129.75 318.2 127.55 327.35 118.15
M 281.8 62.6
Q 276.6 65.6 272.55 70.05
L 256.95 56.55
Q 263.2 49.45 271.5 44.7 279.8 39.95 289.05 38.05 292.5 56.05 292.9 58.3 287.05 59.55 281.8 62.6
M 245.9 75.45
Q 252.4 77.65 265.45 82.15 261.8 94.15 265.45 105.85
L 245.95 112.55
Q 243 103.55 243 94 242.95 84.4 245.9 75.45
M 256.9 131.55
L 272.5 118
Q 276.6 122.5 281.8 125.5 287.05 128.55 292.95 129.8
L 289 150.05
Q 279.8 148.2 271.5 143.35 263.3 138.6 256.9 131.55 Z"/>
</g>

<g id="Layer0_1_MEMBER_0_FILL">
<path fill="#000000" stroke="none" d="
M 162.9 77
Q 164.75 71.5 162.8 68.25 161.8 66.25 159.45 64.95 158.1 64.2 155.05 63.15 128.35 54.45 115 50.15 112.75 49.35 110.6 49.4 108.2 49.5 106.4 50.75 104.85 51.65 103.75 53.55 103 54.8 102.2 57.1
L 82.6 117.45
Q 81.75 120.25 81.6 121.65 81.35 124 82.2 125.8 83.6 129.5 89.35 131.4 116.05 140 129.35 144.4 132.1 145.2 133.55 145.35 135.95 145.6 137.75 144.75 141.5 143.3 143.1 138
L 162.9 77
M 105.2 87.9
Q 105.45 82.95 109.2 79.45 113.25 75.7 118 77.05 123.3 77.95 125.9 85.95 126.85 85.3 128.8 83.9 130.5 82.8 132.05 82.55 135.5 82.05 138.65 83.9 141.85 85.8 142.85 89.1 144.2 92.95 142.65 97.25 141.25 101.15 138 104.05 134.05 107.8 127.95 110.55 124.15 112.2 116.6 114.6 110.75 106.8 108.45 102.15 104.7 94.7 105.2 87.9 Z"/>
</g>

<g id="Layer0_2_FILL">
<path fill="#000000" stroke="none" d="
M 274.3 50.35
Q 272.85 51.25 272.85 53.1 272.85 54.95 274.3 55.85 275.85 57.2 277.85 56.15 279.85 55.05 279.75 53 279.7 51.05 277.8 50.1 275.85 49.1 274.3 50.35 Z"/>
</g>

<g id="Layer0_3_FILL">
<path fill="#000000" stroke="none" d="
M 325.75 55.65
Q 327.55 54.15 326.85 52.15 326.5 50.4 324.6 49.8 322.7 49.2 321.35 50.4 319.95 51.5 320.2 53.45 320.45 55.45 322.1 56.15 323.95 57.2 325.75 55.65 Z"/>
</g>

<g id="Layer0_4_FILL">
<path fill="#000000" stroke="none" d="
M 69.8 55
Q 68.65 56.5 68.3 58.8 68.05 60.25 68.05 62.95
L 68.05 126.1
Q 67.95 131.95 71.35 134.6 73.45 136.4 77.2 136.7 79.35 136.85 83.55 136.9 78.6 133.95 76.1 128.95 73.45 123.5 75.2 118.25 85.65 85.6 96.95 51.3 84.25 51.2 77.95 51.35 75.5 51.3 73.45 52.15 71.1 53.1 69.8 55 Z"/>
</g>

<g id="Layer0_5_FILL">
<path fill="#000000" stroke="none" d="
M 40.15 65.15
Q 38.05 66.4 37.15 68.2 35.2 71.5 37.05 76.95
L 56.9 138.1
Q 58.5 143.35 62.25 144.8 64.65 145.85 68 145.1 69.95 144.65 73.65 143.4 68.4 141.85 64.9 137.7 61.2 133.35 61.2 128.05 61.1 76.55 61.25 57.85
L 44.15 63.4
Q 41.6 64.25 40.15 65.15 Z"/>
</g>

<g id="Layer0_6_FILL">
<path fill="#000000" stroke="none" d="
M 250.4 91.55
Q 249.1 92.65 249.3 94.5 249.5 96.35 251.05 97.1 252.65 98.15 254.5 97 256.35 95.85 256.1 93.95 256.15 91.85 254 90.95 251.85 90 250.4 91.55 Z"/>
</g>

<g id="Layer0_7_FILL">
<path fill="#000000" stroke="none" d="
M 345.25 91.15
Q 343.8 92.1 343.85 93.95 343.85 95.85 345.3 96.75 346.85 98 348.8 97 350.75 96.05 350.65 94.05 350.8 92 348.85 90.95 346.85 89.9 345.25 91.15 Z"/>
</g>

<g id="Layer0_8_FILL">
<path fill="#000000" stroke="none" d="
M 274.3 132.25
Q 272.8 133.35 273 135.4 273.25 137.45 275 138.1 276.85 139.05 278.55 137.6 280.3 136.15 279.7 134.15 279.35 132.4 277.55 131.75 275.7 131.1 274.3 132.25 Z"/>
</g>

<g id="Layer0_9_FILL">
<path fill="#000000" stroke="none" d="
M 325.75 137.6
Q 327.65 136.15 327 134.1 326.6 132.3 324.65 131.7 322.65 131.05 321.35 132.4 320.05 133.5 320.25 135.3 320.5 137.15 322 137.9 323.85 139.05 325.75 137.6 Z"/>
</g>

<g id="Layer0_10_MEMBER_0_FILL">
<path fill="#000000" stroke="none" d="
M 148.5 428.35
Q 141.65 420.4 132.8 415.15 123.4 409.45 112.4 407.3 101.4 405.15 90.5 406.8 80.1 408.3 70.55 413.25 61.05 418.2 53.75 425.85 46.65 433.25 42.25 442.55 37.75 451.95 36.55 462.05 35.1 473.15 37.65 484.2 40.15 495.35 46.25 504.7 53.25 515.6 64.25 523.05 75.25 530.5 87.95 532.85 98.85 534.95 110.05 533.2 121.25 531.4 130.95 526 140.1 520.95 147.25 513.05 154.45 505.2 158.6 495.6 163.75 483.9 163.9 470.8 164.05 457.7 159.2 445.9 155.35 436.35 148.5 428.35
M 85.15 442.25
Q 88.9 436.5 96.05 434.95 103.2 433.35 109.05 436.9 113.95 439.65 116.35 445.2 118.65 450.55 117.7 456.25 122.85 457.1 126.9 460.2 131.15 463.45 132.75 468.2 135.25 474.7 132.3 481.5 129.3 488.35 122.8 490.9 118.25 492.9 112.95 492 107.9 491.15 103.85 487.95 104.3 494.05 104.75 497.05 105.55 502.1 107.15 505.9 100 505.85 92.8 505.9 94.35 502.15 95.15 497.05 95.45 494.95 96.1 487.95 92 491.15 87 492 81.7 492.9 77.1 490.9 70.65 488.35 67.65 481.5 64.7 474.7 67.2 468.2 68.85 463.45 73.05 460.2 77.1 457.1 82.2 456.25 81.2 447.6 85.15 442.25 Z"/>
</g>
</defs>

<g transform="matrix( 0.2140655517578125, 0, 0, 0.2140655517578125, -49.15,-4.95) ">
<use xlink:href="#Layer0_0_MEMBER_0_FILL"/>
</g>

<g transform="matrix( 1, 0, 0, 1, 313.05,-418.65) ">
<use xlink:href="#Layer0_1_MEMBER_0_FILL"/>
</g>

<g transform="matrix( 0.2140655517578125, 0, 0, 0.2140655517578125, -49.15,-4.95) ">
<use xlink:href="#Layer0_2_FILL"/>
</g>

<g transform="matrix( 0.2140655517578125, 0, 0, 0.2140655517578125, -49.15,-4.95) ">
<use xlink:href="#Layer0_3_FILL"/>
</g>

<g transform="matrix( 1, 0, 0, 1, 313.05,-418.65) ">
<use xlink:href="#Layer0_4_FILL"/>
</g>

<g transform="matrix( 1, 0, 0, 1, 313.05,-418.65) ">
<use xlink:href="#Layer0_5_FILL"/>
</g>

<g transform="matrix( 0.2140655517578125, 0, 0, 0.2140655517578125, -49.15,-4.95) ">
<use xlink:href="#Layer0_6_FILL"/>
</g>

<g transform="matrix( 0.2140655517578125, 0, 0, 0.2140655517578125, -49.15,-4.95) ">
<use xlink:href="#Layer0_7_FILL"/>
</g>

<g transform="matrix( 0.2140655517578125, 0, 0, 0.2140655517578125, -49.15,-4.95) ">
<use xlink:href="#Layer0_8_FILL"/>
</g>

<g transform="matrix( 0.2140655517578125, 0, 0, 0.2140655517578125, -49.15,-4.95) ">
<use xlink:href="#Layer0_9_FILL"/>
</g>

<g transform="matrix( 1, 0, 0, 1, 313.05,-418.65) ">
<use xlink:href="#Layer0_10_MEMBER_0_FILL"/>
</g>
</svg>
